<svg xmlns="http://www.w3.org/2000/svg" xmlns:xlink="http://www.w3.org/1999/xlink" width="41" height="41" viewBox="0 0 41 41">
  <defs>
    <clipPath id="clip-path">
      <rect id="Background" width="32" height="32" fill="none"/>
    </clipPath>
    <clipPath id="clip-path-2">
      <rect id="Background-2" data-name="Background" width="21" height="28" fill="none"/>
    </clipPath>
  </defs>
  <g id="btn_icon_apple" data-name="btn/icon/apple" transform="translate(0.5 0.5)">
    <rect id="Rectangle_3" data-name="Rectangle 3" width="40" height="40" fill="#fafafa" stroke="#eee" stroke-miterlimit="10" stroke-width="1"/>
    <g id="Apple" transform="translate(4 4)">
      <rect id="Background-3" data-name="Background" width="32" height="32" fill="none"/>
      <g id="Apple-2" data-name="Apple" clip-path="url(#clip-path)">
        <g id="apple-3" data-name="apple" transform="translate(5 2)">
          <rect id="Background-4" data-name="Background" width="21" height="28" fill="none"/>
          <g id="apple-4" data-name="apple" clip-path="url(#clip-path-2)">
            <path id="Shape" d="M6.585,24.5c-1.423,0-2.753-1.456-3.618-2.677a18.648,18.648,0,0,1-2.179-4.17A13.707,13.707,0,0,1,0,13.208,7.543,7.543,0,0,1,2,7.765,6.221,6.221,0,0,1,6.295,5.923a8.472,8.472,0,0,1,2.661.656A5.623,5.623,0,0,0,10.472,7a4.913,4.913,0,0,0,1.313-.381,9.538,9.538,0,0,1,3.2-.764c.112,0,.222,0,.329.013a5.894,5.894,0,0,1,4.632,2.439,5.1,5.1,0,0,0-2.735,4.638v.015a5.431,5.431,0,0,0,3.375,5.01c-.7,2.113-3,6.487-5.611,6.524a5.186,5.186,0,0,1-1.954-.466,5.824,5.824,0,0,0-2.224-.512,6.308,6.308,0,0,0-2.385.536,5.233,5.233,0,0,1-1.761.442ZM10.593,5.852h0c-.092,0-.186,0-.279-.011a5.23,5.23,0,0,1,1.4-3.932A5.77,5.77,0,0,1,15.427,0V.015a5.136,5.136,0,0,1-1.313,3.95A4.711,4.711,0,0,1,10.593,5.852Z" transform="translate(0.219 1.75)"/>
          </g>
        </g>
      </g>
    </g>
  </g>
</svg>
