<svg xmlns="http://www.w3.org/2000/svg" xmlns:xlink="http://www.w3.org/1999/xlink" width="41" height="41" viewBox="0 0 41 41">
  <defs>
    <clipPath id="clip-path">
      <rect id="Background" width="28" height="28" fill="none"/>
    </clipPath>
  </defs>
  <g id="btn_icon_google" data-name="btn/icon/google" transform="translate(0.5 0.5)">
    <rect id="Rectangle_3" data-name="Rectangle 3" width="40" height="40" fill="#fafafa" stroke="#eee" stroke-miterlimit="10" stroke-width="1"/>
    <g id="icons8-google" transform="translate(6 6)">
      <rect id="Background-2" data-name="Background" width="28" height="28" fill="none"/>
      <g id="icons8-google-2" data-name="icons8-google" clip-path="url(#clip-path)">
        <path id="Shape" d="M23.106,9.382h-.94V9.333h-10.5V14H18.26a7.005,7.005,0,1,1-1.95-7.561l3.3-3.3a11.655,11.655,0,1,0,3.723,8.527,11.746,11.746,0,0,0-.227-2.285Z" transform="translate(2.333 2.333)" fill="#ffc107"/>
        <path id="Shape-2" data-name="Shape" d="M0,6.236,3.833,9.048A6.986,6.986,0,0,1,14.965,6.439l3.3-3.3A11.644,11.644,0,0,0,0,6.236Z" transform="translate(3.678 2.333)" fill="#ff3d00"/>
        <path id="Shape-3" data-name="Shape" d="M10.386,9.3a11.612,11.612,0,0,0,7.822-3.029L14.6,3.218a6.947,6.947,0,0,1-4.211,1.418A7,7,0,0,1,3.8,0L0,2.931A11.657,11.657,0,0,0,10.386,9.3Z" transform="translate(3.614 16.365)" fill="#4caf50"/>
        <path id="Shape-4" data-name="Shape" d="M11.44.048H10.5V0H0V4.667H6.593a7.023,7.023,0,0,1-2.384,3.25h0l3.611,3.055a11.286,11.286,0,0,0,3.845-8.637A11.746,11.746,0,0,0,11.44.048Z" transform="translate(14 11.667)" fill="#1976d2"/>
      </g>
    </g>
  </g>
</svg>
